USFL
nRows=131
nColumns=2
inDegrees=yes
endheader
time	med_gas_r	
3.1873	 42.472755	
3.24979	 42.488688	
3.31229	 42.388318	
3.37478	 42.296480	
3.43728	 42.323679	
3.49978	 42.348291	
3.56227	 42.359238	
3.62477	 42.405621	
3.68726	 42.302660	
3.74976	 42.289540	
3.81226	 41.550378	
3.87475	 41.416697	
3.93725	 41.223593	
3.99974	 41.133094	
4.06224	 40.969367	
4.12474	 39.502600	
4.18723	 39.520184	
4.24973	 39.442174	
4.31222	 39.285434	
4.37472	 39.239219	
4.43722	 39.033860	
4.49971	 38.972702	
4.56221	 38.993452	
4.6247	 39.051615	
4.6872	 39.106267	
4.7497	 39.105991	
4.81219	 39.036209	
4.87469	 38.935729	
4.93718	 38.942169	
4.99968	 38.791512	
5.06218	 38.765415	
5.12467	 38.713951	
5.18717	 38.522519	
5.24966	 38.479559	
5.31216	 38.517321	
5.37466	 38.336437	
5.43715	 38.499216	
5.49965	 38.485477	
5.56214	 38.337767	
5.62464	 38.205244	
5.68714	 38.321608	
5.74963	 38.341894	
5.81213	 38.524245	
5.87462	 35.766058	
5.93712	 35.708105	
5.99962	 35.839471	
6.06211	 35.859922	
6.12461	 35.804655	
6.1871	 35.860917	
6.2496	 35.975585	
6.3121	 35.999988	
6.37459	 36.009811	
6.43709	 36.103945	
6.49958	 36.026357	
6.56208	 36.079095	
6.62458	 36.114830	
6.68707	 36.081831	
6.74957	 36.140334	
6.81206	 36.176114	
6.87456	 36.130957	
6.93706	 36.121226	
6.99955	 36.119761	
7.06205	 36.114920	
7.12454	 36.134208	
7.18704	 36.184824	
7.24954	 36.179388	
7.31203	 36.172539	
7.37453	 36.233340	
7.43702	 36.314968	
7.49952	 36.562886	
7.56202	 36.695100	
7.62451	 36.713716	
7.68701	 36.718854	
7.7495	 36.740983	
7.812	 36.756486	
7.8745	 36.826832	
7.93699	 36.862639	
7.99949	 36.863480	
8.06198	 36.790843	
8.12448	 36.808209	
8.18698	 36.790893	
8.24947	 36.884625	
8.31197	 36.928140	
8.37446	 36.840240	
8.43696	 36.886653	
8.49946	 37.015616	
8.56195	 37.007516	
8.62445	 37.034230	
8.68694	 37.015077	
8.74944	 36.996596	
8.81194	 36.982562	
8.87443	 37.012520	
8.93693	 36.999797	
8.99942	 37.044750	
9.06192	 37.013850	
9.12442	 37.045960	
9.18691	 36.985932	
9.24941	 36.948912	
9.3119	 36.999509	
9.3744	 36.881873	
9.4369	 36.685548	
9.49939	 36.860682	
9.56189	 36.258289	
9.62438	 36.294717	
9.68688	 36.470302	
9.74938	 35.775667	
9.81187	 35.882468	
9.87437	 36.052384	
9.93686	 35.983981	
9.99936	 35.964152	
10.0619	 36.130664	
10.1244	 38.896295	
10.1868	 38.910951	
10.2493	 38.954880	
10.3118	 39.097577	
10.3743	 38.961589	
10.4368	 38.833784	
10.4993	 38.655980	
10.5618	 38.568152	
10.6243	 38.811203	
10.6868	 39.011984	
10.7493	 39.043923	
10.8118	 39.117488	
10.8743	 39.162821	
10.9368	 39.243798	
10.9993	 39.247356	
11.0618	 39.245197	
11.1243	 39.201117	
11.1868	 39.336129	
11.2493	 39.270160	
11.3118	 39.228868	
